HIERARCHY
ROOT Hips
{
	OFFSET 0.000000 0.000000 0.000000
	CHANNELS 6 Xposition Yposition Zposition Zrotation Yrotation Xrotation 
	JOINT LHipJoint
	{
		OFFSET 0.000000 0.000000 0.000000
		CHANNELS 3 Zrotation Yrotation Xrotation
		JOINT LeftUpLeg
		{
			OFFSET 1.363060 -1.794630 0.839290
			CHANNELS 3 Zrotation Yrotation Xrotation
			JOINT LeftLeg
			{
				OFFSET 2.448110 -6.726130 0.000000
				CHANNELS 3 Zrotation Yrotation Xrotation
				JOINT LeftFoot
				{
					OFFSET 2.562200 -7.039590 0.000000
					CHANNELS 3 Zrotation Yrotation Xrotation
					JOINT LeftToeBase
					{
						OFFSET 0.157640 -0.433110 2.322550
						CHANNELS 3 Zrotation Yrotation Xrotation
						End Site
						{
							OFFSET 0.000000 0.000000 0.000000
						}
					}
				}
			}
		}
	}
	JOINT RHipJoint
	{
		OFFSET 0.000000 0.000000 0.000000
		CHANNELS 3 Zrotation Yrotation Xrotation
		JOINT RightUpLeg
		{
			OFFSET -1.305520 -1.794630 0.839290
			CHANNELS 3 Zrotation Yrotation Xrotation
			JOINT RightLeg
			{
				OFFSET -2.542530 -6.985550 0.000000
				CHANNELS 3 Zrotation Yrotation Xrotation
				JOINT RightFoot
				{
					OFFSET -2.568260 -7.056230 0.000000
					CHANNELS 3 Zrotation Yrotation Xrotation
					JOINT RightToeBase
					{
						OFFSET -0.164730 -0.452590 2.363150
						CHANNELS 3 Zrotation Yrotation Xrotation
						End Site
						{
							OFFSET 0.000000 0.000000 0.000000
						}
					}
				}
			}
		}
	}
}
MOTION
Frames: 33
Frame Time: 0.008333
8.522971 19.224672 1.623422 25.226303 -85.109712 -0.455107 -11.459251 2.445877 2.636930 -5.103526 -2.814288 -20.976303 0.490696 0.676147 26.964347 2.408308 8.549667 40.048306 5.290700 -0.000000 -63.256800 10.918866 -2.013936 -1.653051 5.753552 -13.742783 -21.264657 0.370187 -1.929378 29.495433 -1.538965 -5.354530 31.631456 -3.009600 0.000000 -78.632599
8.327783 19.397933 1.613555 24.961388 -85.388157 -0.055051 -11.454155 2.376228 2.656874 -5.052506 -3.016272 -21.474739 0.505409 0.688736 27.033649 2.368667 8.739677 39.004231 5.344400 -0.000000 -62.247300 10.840845 -1.992601 -1.539876 5.978752 -13.072201 -22.029440 0.405166 -1.970815 29.805263 -1.491239 -5.824105 29.192765 -3.196600 0.000000 -78.031600
8.137227 19.559816 1.603772 24.768204 -85.646260 0.281959 -11.444781 2.298909 2.643876 -5.048639 -3.145356 -22.082794 0.507516 0.714443 27.238651 2.311250 8.848857 37.672803 5.311900 0.000000 -61.667600 10.760663 -1.951755 -1.445730 6.195899 -12.447854 -22.841246 0.455071 -2.007643 30.100926 -1.453197 -6.293425 26.642364 -3.346300 0.000001 -77.565800
7.950784 19.711140 1.594324 24.554999 -85.875587 0.639747 -11.433353 2.213962 2.600972 -5.081026 -3.191836 -22.767675 0.495923 0.747590 27.499339 2.241346 8.852032 36.225366 5.193900 0.000001 -61.397800 10.679492 -1.893059 -1.378300 6.412174 -11.922463 -23.672934 0.520901 -2.035524 30.316312 -1.429812 -6.743975 24.179051 -3.457600 0.000000 -77.098300
7.768004 19.852786 1.585357 24.247765 -86.070749 1.087499 -11.421076 2.121766 2.533170 -5.141664 -3.157991 -23.500714 0.471070 0.782953 27.735999 2.164816 8.750829 34.818550 5.011400 -0.000000 -61.406500 10.598201 -1.818993 -1.341134 6.636903 -11.524663 -24.505518 0.600593 -2.051768 30.397197 -1.424232 -7.180359 21.964044 -3.547400 0.000000 -76.674900
7.588070 19.984835 1.576893 23.789314 -86.227829 1.687339 -11.408798 2.024230 2.446637 -5.225984 -3.049352 -24.264571 0.433824 0.816783 27.886548 2.085545 8.554081 33.558435 4.785100 -0.000000 -61.535100 10.517507 -1.733554 -1.333832 6.880204 -11.266318 -25.332312 0.691727 -2.055654 30.314017 -1.435342 -7.605806 20.086644 -3.631300 -0.000000 -76.249100
7.410425 20.107890 1.568800 23.168944 -86.344946 2.452515 -11.396242 1.923365 2.347945 -5.333437 -2.880129 -25.043885 0.385644 0.846102 27.898345 2.007283 8.288922 32.517351 4.542700 0.000000 -61.754000 10.437826 -1.640164 -1.353146 7.148596 -11.141155 -26.150819 0.791649 -2.047232 30.052500 -1.460233 -8.025248 18.583839 -3.724100 0.000000 -75.876000
7.234353 20.221995 1.560931 22.418438 -86.421168 3.358087 -11.382782 1.821861 2.243542 -5.466334 -2.665634 -25.829546 0.327572 0.868995 27.737257 1.931940 7.983365 31.717159 4.305100 -0.000000 -61.985300 10.359423 -1.542443 -1.392913 7.445017 -11.131007 -26.964002 0.898937 -2.027105 29.615590 -1.493831 -8.432895 17.438312 -3.831300 -0.000000 -75.557800
7.059235 20.326722 1.553044 21.600812 -86.456835 4.346011 -11.367474 1.722201 2.138865 -5.628774 -2.421642 -26.615141 0.260185 0.884367 27.385851 1.860168 7.665475 31.141663 4.087400 0.000000 -62.184200 10.282382 -1.443532 -1.445587 7.767979 -11.209859 -27.776751 1.013159 -1.996322 29.019605 -1.530120 -8.813365 16.598038 -3.949200 0.000001 -75.300100
6.884498 20.421981 1.544976 20.786433 -86.453110 5.349916 -11.349355 1.626536 2.038367 -5.824740 -2.162236 -27.397688 0.183455 0.891769 26.842613 1.791341 7.358746 30.744422 3.898800 -0.000001 -62.321101 10.206654 -1.346372 -1.502762 8.113204 -11.348086 -28.595536 1.134858 -1.956243 28.290138 -1.562501 -9.141609 15.989862 -4.065600 0.000000 -75.100199
6.709891 20.507088 1.536603 20.032783 -86.412091 6.311435 -11.327461 1.536141 1.945026 -6.057429 -1.899826 -28.175460 0.097031 0.891235 26.118940 1.724197 7.081434 30.465909 3.744000 -0.000000 -62.433800 10.132123 -1.253302 -1.556933 8.474356 -11.517402 -29.425939 1.264971 -1.908621 27.457682 -1.584462 -9.387306 15.538345 -4.163000 -0.000000 -74.979200
6.534956 20.581823 1.527894 19.365156 -86.336194 7.206551 -11.301397 1.452334 1.860303 -6.328361 -1.638385 -28.953436 -0.000663 0.883799 25.245897 1.655161 6.830684 30.223252 3.614200 0.000000 -62.366700 10.058769 -1.166926 -1.601300 8.845211 -11.694704 -30.273955 1.405141 -1.855582 26.557828 -1.588830 -9.511800 15.167289 -4.217800 0.000000 -74.842700
6.359702 20.645723 1.518874 18.788959 -86.228727 8.025558 -11.270640 1.374849 1.785206 -6.636211 -1.386286 -29.731865 -0.110122 0.869660 24.249021 1.583122 6.611403 29.969734 3.508600 0.000000 -62.283300 9.986667 -1.088223 -1.632133 9.218970 -11.863521 -31.141670 1.556062 -1.798980 25.617507 -1.570575 -9.488402 14.833808 -4.214699 -0.000000 -74.770100
6.184262 20.698685 1.509697 18.284514 -86.093616 8.782295 -11.235088 1.302998 1.719346 -6.978295 -1.145352 -30.514885 -0.232277 0.849546 23.162878 1.506204 6.412041 29.663549 3.417100 0.000000 -62.197700 9.915879 -1.017598 -1.648327 9.591243 -12.017040 -32.030425 1.718450 -1.740837 24.661694 -1.525226 -9.293912 14.511318 -4.141200 -0.000001 -74.744500
6.008666 20.740592 1.500439 17.818546 -85.934339 9.505847 -11.195055 1.235817 1.660987 -7.351808 -0.910881 -31.310266 -0.368372 0.824562 22.027675 1.422129 6.207272 29.273104 3.322000 -0.000000 -62.025601 9.846471 -0.954931 -1.650984 9.960858 -12.156163 -32.939718 1.892463 -1.682762 23.708015 -1.450215 -8.918240 14.197632 -3.994200 0.000000 -74.738800
5.833192 20.771512 1.491267 17.360904 -85.754725 10.220844 -11.150883 1.171805 1.608517 -7.754322 -0.677587 -32.127681 -0.518627 0.795549 20.878665 1.330270 5.974123 28.800340 3.210000 -0.000001 -61.779000 9.778501 -0.899153 -1.642479 10.328841 -12.286418 -33.868982 2.077241 -1.625821 22.765922 -1.345755 -8.369299 13.912433 -3.780800 0.000000 -74.759900
5.658349 20.791439 1.482241 16.896278 -85.559907 10.936761 -11.103313 1.107872 1.559869 -8.177361 -0.455664 -32.952494 -0.678932 0.761120 19.709384 1.236199 5.727262 28.330585 3.094000 -0.000000 -61.878400 9.712188 -0.847248 -1.630539 10.695731 -12.416253 -34.805728 2.270284 -1.570212 21.826647 -1.215493 -7.676470 13.708201 -3.520100 -0.000000 -74.938700
5.484171 20.800698 1.473438 16.402687 -85.352631 11.674563 -11.053132 1.043879 1.511217 -8.626309 -0.223415 -33.808941 -0.851026 0.724437 18.570284 1.135792 5.418148 27.842949 2.944500 -0.000001 -61.828400 9.647132 -0.798445 -1.615274 11.066805 -12.547789 -35.752406 2.469457 -1.515767 20.893121 -1.064063 -6.871414 13.604123 -3.226100 0.000000 -75.148600
5.311043 20.799226 1.464824 15.889735 -85.136811 12.422733 -11.001132 0.977915 1.460466 -9.098405 0.011455 -34.687584 -1.030197 0.685095 17.450802 1.034506 5.067919 27.425685 2.777900 0.000000 -61.989900 9.583320 -0.749557 -1.601070 11.441333 -12.679784 -36.698627 2.670657 -1.461252 19.950994 -0.899412 -6.003729 13.639827 -2.919700 -0.000000 -75.483400
5.139056 20.787042 1.456363 15.356935 -84.915569 13.183221 -10.948246 0.909414 1.403466 -9.597845 0.257958 -35.595325 -1.215268 0.645109 16.367594 0.932217 4.664908 27.100048 2.587600 0.000000 -62.121100 9.520123 -0.698916 -1.587749 11.818563 -12.801721 -37.637556 2.870029 -1.404757 18.990971 -0.729834 -5.121599 13.825292 -2.616300 0.000000 -75.893500
4.968289 20.763845 1.447896 14.836894 -84.691982 13.926034 -10.894687 0.837880 1.338571 -10.126953 0.507616 -36.525136 -1.402766 0.604561 15.309650 0.832647 4.234284 26.914734 2.388200 0.000000 -62.412600 9.457504 -0.643638 -1.574571 12.189397 -12.898090 -38.561626 3.063105 -1.344097 18.004728 -0.564021 -4.272785 14.155445 -2.329300 -0.000000 -76.401300
4.798780 20.729473 1.439321 14.351140 -84.468437 14.632728 -10.840432 0.763305 1.263723 -10.690291 0.757081 -37.475319 -1.591176 0.564124 14.277357 0.736990 3.788297 26.877981 2.184700 0.000000 -62.802800 9.395138 -0.581559 -1.558173 12.541931 -12.948410 -39.465740 3.245956 -1.276914 16.989507 -0.409539 -3.497906 14.601566 -2.069100 0.000001 -76.969700
4.630234 20.683689 1.430451 13.924990 -84.246480 15.283489 -10.784592 0.686778 1.175547 -11.300612 1.015478 -38.456962 -1.782846 0.525757 13.296326 0.642154 3.312440 26.938775 1.964899 0.000000 -62.997699 9.332949 -0.511510 -1.532277 12.860882 -12.930962 -40.350596 3.415548 -1.201488 15.954931 -0.271845 -2.825300 15.107992 -1.843200 0.000001 -77.495700
4.462738 20.625855 1.421193 13.592082 -84.028664 15.848696 -10.726421 0.607610 1.078165 -11.948269 1.247068 -39.445203 -1.972264 0.486023 12.324112 0.555071 2.869415 27.142618 1.763600 -0.000000 -63.486400 9.271498 -0.430323 -1.495995 13.127436 -12.832329 -41.213892 3.568848 -1.116845 14.905104 -0.154957 -2.276156 15.637191 -1.659400 0.000001 -78.066500
4.295815 20.555826 1.411385 13.374127 -83.814952 16.312250 -10.663599 0.528534 0.968672 -12.654354 1.472502 -40.469253 -2.166459 0.448312 11.418047 0.467277 2.409942 27.369630 1.549200 0.000001 -63.718500 9.211092 -0.338610 -1.440533 13.326626 -12.639018 -42.072218 3.704845 -1.023852 13.871097 -0.059732 -1.853107 16.111255 -1.519500 0.000000 -78.502500
4.129378 20.473524 1.400937 13.289270 -83.605422 16.661009 -10.594482 0.450723 0.850945 -13.418101 1.674458 -41.529637 -2.365211 0.411835 10.578335 0.378958 1.947835 27.593990 1.329300 0.000000 -63.863200 9.152427 -0.235838 -1.363730 13.446800 -12.352190 -42.941218 3.823053 -0.924762 12.876980 0.014533 -1.549731 16.488466 -1.423700 -0.000000 -78.816200
3.963194 20.378824 1.389899 13.347040 -83.399362 16.891275 -10.517406 0.376274 0.728961 -14.241683 1.842691 -42.637859 -2.570101 0.377360 9.823998 0.287544 1.474549 27.768849 1.099399 -0.000000 -63.938399 9.096059 -0.123071 -1.263858 13.484578 -11.982027 -43.845343 3.924452 -0.823499 11.952640 0.070420 -1.347551 16.739394 -1.366600 0.000000 -78.993600
3.797315 20.271786 1.378282 13.544356 -83.194958 17.009635 -10.431099 0.307337 0.607374 -15.124969 1.967400 -43.810026 -2.782595 0.346661 9.178663 0.189897 0.972479 27.855611 0.851001 0.000000 -63.903800 9.042365 -0.002302 -1.141430 13.445318 -11.548293 -44.813032 4.011129 -0.725408 11.127690 0.111908 -1.219167 16.860625 -1.338100 0.000000 -79.022600
3.631722 20.152626 1.366229 13.880782 -82.990389 17.021802 -10.335214 0.245596 0.494468 -16.055825 2.022322 -45.050352 -3.000492 0.320086 8.643015 0.086774 0.450779 27.863531 0.590900 -0.000000 -63.988900 8.992045 0.124420 -1.000535 13.341728 -11.079767 -45.873997 4.085865 -0.636954 10.426564 0.143679 -1.133299 16.883145 -1.325700 -0.000001 -78.978099
3.466499 20.021906 1.353822 14.334373 -82.783390 16.952011 -10.230128 0.192983 0.394435 -17.028512 2.001086 -46.376443 -3.224047 0.301511 8.246068 -0.024934 -0.118973 27.781666 0.304600 -0.000001 -64.078300 8.945377 0.253357 -0.845678 13.195633 -10.606365 -47.054700 4.152389 -0.564892 9.869202 0.171225 -1.057067 16.858342 -1.315500 -0.000000 -78.873700
3.301809 19.879576 1.341223 14.892648 -82.572843 16.814969 -10.117465 0.149704 0.315623 -18.017249 1.873586 -47.782964 -3.447562 0.291879 7.978124 -0.141865 -0.716842 27.662193 0.003901 -0.000000 -64.358600 8.903110 0.382196 -0.684918 13.030418 -10.158930 -48.375593 4.213917 -0.516175 9.467328 0.199694 -0.962590 16.863402 -1.295401 -0.000000 -78.810100
3.137808 19.725963 1.328502 15.534880 -82.358062 16.630375 -9.999626 0.115239 0.262743 -18.996928 1.622153 -49.265420 -3.665650 0.293766 7.840856 -0.261763 -1.335327 27.549864 -0.308200 -0.000000 -64.842300 8.865796 0.508479 -0.526173 12.870119 -9.761281 -49.846712 4.273128 -0.496906 9.226066 0.233784 -0.827784 16.980283 -1.255900 -0.000000 -78.857800
2.974619 19.561303 1.315705 16.243721 -82.139822 16.411889 -9.879733 0.087378 0.239788 -19.932235 1.226924 -50.807073 -3.870391 0.308593 7.824021 -0.380029 -1.949383 27.500800 -0.620500 -0.000000 -65.567800 8.833864 0.631207 -0.377881 12.733344 -9.428354 -51.465767 4.331144 -0.511960 9.145457 0.276896 -0.637984 17.285391 -1.188900 0.000000 -79.086700
